<svg xmlns="http://www.w3.org/2000/svg" viewBox="0 0 720 520" role="img" aria-labelledby="title desc">
  <title id="title">Property registration</title>
  <desc id="desc">Property documents, registry seal and checklist for property registration support.</desc>
  <rect width="720" height="520" rx="36" fill="#F8FAFC"/>
  <rect x="110" y="92" width="230" height="318" rx="26" fill="#FFFFFF" stroke="#DCE4EE" stroke-width="3"/>
  <rect x="148" y="136" width="112" height="16" rx="8" fill="#112E56"/>
  <rect x="148" y="188" width="150" height="12" rx="6" fill="#DCE4EE"/>
  <rect x="148" y="222" width="116" height="12" rx="6" fill="#DCE4EE"/>
  <rect x="148" y="256" width="146" height="12" rx="6" fill="#DCE4EE"/>
  <path d="M152 334h150" stroke="#2F7A4D" stroke-width="12" stroke-linecap="round"/>
  <path d="m160 320 18 18 36-46" fill="none" stroke="#2F7A4D" stroke-width="9" stroke-linecap="round" stroke-linejoin="round"/>
  <rect x="380" y="136" width="220" height="220" rx="28" fill="#EAF5EF" stroke="#CFE1D8" stroke-width="3"/>
  <path d="M420 250 490 188l70 62" fill="#FFFFFF" stroke="#1A3F72" stroke-width="11" stroke-linecap="round" stroke-linejoin="round"/>
  <rect x="442" y="248" width="96" height="78" rx="14" fill="#FFFFFF"/>
  <rect x="482" y="282" width="30" height="44" rx="6" fill="#112E56"/>
  <circle cx="560" cy="360" r="50" fill="#112E56"/>
  <path d="M536 360h48M560 336v48" stroke="#FFFFFF" stroke-width="10" stroke-linecap="round"/>
  <path d="M336 430c58-40 126-40 184 0" fill="none" stroke="#DCE4EE" stroke-width="12" stroke-linecap="round"/>
</svg>
