<svg xmlns="http://www.w3.org/2000/svg" viewBox="0 0 720 520" role="img" aria-labelledby="title desc">
  <title id="title">Legal notice response</title>
  <desc id="desc">A legal notice document with highlighted deadlines and reply guidance.</desc>
  <rect width="720" height="520" rx="36" fill="#F7FAFD"/>
  <rect x="134" y="58" width="330" height="408" rx="28" fill="#FFFFFF" stroke="#DCE4EE" stroke-width="3"/>
  <path d="M378 58v92h86" fill="#E9EEF6"/>
  <path d="M378 58v92h86" fill="none" stroke="#DCE4EE" stroke-width="3"/>
  <rect x="174" y="112" width="132" height="18" rx="9" fill="#112E56"/>
  <rect x="174" y="170" width="228" height="14" rx="7" fill="#DCE4EE"/>
  <rect x="174" y="206" width="196" height="14" rx="7" fill="#DCE4EE"/>
  <rect x="174" y="242" width="238" height="14" rx="7" fill="#DCE4EE"/>
  <rect x="174" y="296" width="168" height="54" rx="18" fill="#FFF1E6" stroke="#F0C7A6" stroke-width="3"/>
  <circle cx="210" cy="323" r="15" fill="#B23A3A"/>
  <path d="M210 310v14" stroke="#FFFFFF" stroke-width="5" stroke-linecap="round"/>
  <circle cx="210" cy="335" r="3" fill="#FFFFFF"/>
  <rect x="246" y="316" width="72" height="12" rx="6" fill="#E6A76E"/>
  <rect x="482" y="164" width="112" height="214" rx="24" fill="#112E56"/>
  <rect x="506" y="198" width="64" height="10" rx="5" fill="#FFFFFF"/>
  <rect x="506" y="226" width="48" height="10" rx="5" fill="#9BB6D3"/>
  <rect x="506" y="284" width="64" height="64" rx="18" fill="#FFFFFF"/>
  <path d="m522 316 12 12 24-34" fill="none" stroke="#2F7A4D" stroke-width="8" stroke-linecap="round" stroke-linejoin="round"/>
  <path d="M98 404h520" stroke="#DCE4EE" stroke-width="10" stroke-linecap="round"/>
</svg>
