<svg xmlns="http://www.w3.org/2000/svg" viewBox="0 0 720 520" role="img" aria-labelledby="title desc">
  <title id="title">Family law consultation</title>
  <desc id="desc">A calm legal consultation scene with people, documents and a verified profile panel.</desc>
  <rect width="720" height="520" rx="36" fill="#F7FAFD"/>
  <circle cx="588" cy="96" r="70" fill="#E8EEF9"/>
  <circle cx="118" cy="410" r="84" fill="#EAF5EF"/>
  <rect x="86" y="88" width="548" height="344" rx="28" fill="#FFFFFF" stroke="#D9E3EF" stroke-width="3"/>
  <rect x="118" y="126" width="250" height="52" rx="14" fill="#0B1220"/>
  <rect x="140" y="145" width="124" height="10" rx="5" fill="#FFFFFF" opacity=".92"/>
  <rect x="118" y="202" width="210" height="18" rx="9" fill="#DCE4EE"/>
  <rect x="118" y="236" width="274" height="18" rx="9" fill="#DCE4EE"/>
  <rect x="118" y="270" width="190" height="18" rx="9" fill="#DCE4EE"/>
  <rect x="426" y="132" width="144" height="162" rx="22" fill="#F3EEF9" stroke="#D8C7EC" stroke-width="3"/>
  <circle cx="498" cy="184" r="36" fill="#C8B0E5"/>
  <path d="M446 266c12-38 92-38 104 0" fill="#FFFFFF"/>
  <circle cx="222" cy="350" r="31" fill="#F2C48A"/>
  <circle cx="292" cy="350" r="31" fill="#8FB6DA"/>
  <circle cx="362" cy="350" r="31" fill="#7DC4A0"/>
  <path d="M179 411c10-53 76-55 88 0" fill="#F4E9DC"/>
  <path d="M249 411c10-53 76-55 88 0" fill="#E8F0F7"/>
  <path d="M319 411c10-53 76-55 88 0" fill="#EAF5EF"/>
  <rect x="444" y="326" width="112" height="42" rx="21" fill="#2F7A4D"/>
  <path d="m477 347 14 14 32-34" fill="none" stroke="#FFFFFF" stroke-width="10" stroke-linecap="round" stroke-linejoin="round"/>
</svg>
