<svg xmlns="http://www.w3.org/2000/svg" viewBox="0 0 24 24" fill="currentColor" aria-hidden="true" focusable="false"><path d="M12 2.16c3.2 0 3.58.01 4.85.07 1.17.05 1.8.25 2.22.42.56.21.96.47 1.38.89.42.42.68.82.89 1.38.17.42.37 1.05.42 2.22.06 1.27.07 1.65.07 4.85s-.01 3.58-.07 4.85c-.05 1.17-.25 1.8-.42 2.22a3.7 3.7 0 0 1-.89 1.38c-.42.42-.82.68-1.38.89-.42.17-1.05.37-2.22.42-1.27.06-1.65.07-4.85.07s-3.58-.01-4.85-.07c-1.17-.05-1.8-.25-2.22-.42a3.7 3.7 0 0 1-1.38-.89 3.7 3.7 0 0 1-.89-1.38c-.17-.42-.37-1.05-.42-2.22C2.17 15.58 2.16 15.2 2.16 12s.01-3.58.07-4.85c.05-1.17.25-1.8.42-2.22a3.7 3.7 0 0 1 .89-1.38 3.7 3.7 0 0 1 1.38-.89c.42-.17 1.05-.37 2.22-.42C8.42 2.17 8.8 2.16 12 2.16ZM12 0C8.74 0 8.33.01 7.05.07 5.78.13 4.9.33 4.14.63a5.84 5.84 0 0 0-2.13 1.38A5.84 5.84 0 0 0 .63 4.14C.33 4.9.13 5.78.07 7.05.01 8.33 0 8.74 0 12s.01 3.67.07 4.95c.06 1.27.26 2.15.56 2.91.31.78.74 1.45 1.38 2.13.68.64 1.35 1.07 2.13 1.38.76.3 1.64.5 2.91.56C8.33 23.99 8.74 24 12 24s3.67-.01 4.95-.07c1.27-.06 2.15-.26 2.91-.56a5.84 5.84 0 0 0 2.13-1.38c.64-.68 1.07-1.35 1.38-2.13.3-.76.5-1.64.56-2.91.06-1.28.07-1.69.07-4.95s-.01-3.67-.07-4.95c-.06-1.27-.26-2.15-.56-2.91A5.84 5.84 0 0 0 21.99 2 5.84 5.84 0 0 0 19.86.63C19.1.33 18.22.13 16.95.07 15.67.01 15.26 0 12 0Zm0 5.84A6.16 6.16 0 1 0 18.16 12 6.16 6.16 0 0 0 12 5.84Zm0 10.16A4 4 0 1 1 16 12a4 4 0 0 1-4 4Zm6.4-11.84a1.44 1.44 0 1 1-1.44 1.44 1.44 1.44 0 0 1 1.44-1.44Z"/></svg>
