<svg xmlns="http://www.w3.org/2000/svg" viewBox="0 0 24 24" fill="currentColor" aria-hidden="true" focusable="false"><path d="M19.05 4.94A10 10 0 0 0 4.18 18.4L3 22l3.7-1.16A10 10 0 1 0 19.05 4.94Zm-7.05 16a8.3 8.3 0 0 1-4.22-1.15l-.3-.18-2.2.69.7-2.14-.2-.32A8.3 8.3 0 1 1 12 20.94Zm4.55-6.2c-.25-.13-1.47-.72-1.7-.8-.23-.08-.4-.13-.56.13-.16.25-.65.8-.8.97-.15.17-.3.18-.55.06a6.78 6.78 0 0 1-2-1.24 7.5 7.5 0 0 1-1.38-1.72c-.14-.25 0-.39.11-.51.12-.12.25-.3.38-.46.13-.15.17-.25.25-.42.08-.17.04-.32-.02-.45s-.56-1.34-.77-1.84c-.2-.48-.4-.42-.56-.43h-.48a.92.92 0 0 0-.67.31 2.78 2.78 0 0 0-.87 2.07c0 1.22.89 2.4 1.01 2.57.13.17 1.76 2.69 4.27 3.77a14 14 0 0 0 1.42.52 3.4 3.4 0 0 0 1.57.1 2.57 2.57 0 0 0 1.69-1.2 2.1 2.1 0 0 0 .15-1.2c-.06-.1-.23-.17-.48-.3Z"/></svg>
